{"glyphs":{"0":{"ha":688,"x_min":0,"x_max":0,"o":""},"1":{"ha":688,"x_min":0,"x_max":0,"o":""},"2":{"ha":688,"x_min":0,"x_max":0,"o":""},"3":{"ha":688,"x_min":0,"x_max":0,"o":""},"4":{"ha":688,"x_min":0,"x_max":0,"o":""},"5":{"ha":688,"x_min":0,"x_max":0,"o":""},"6":{"ha":688,"x_min":0,"x_max":0,"o":""},"7":{"ha":688,"x_min":0,"x_max":0,"o":""},"8":{"ha":688,"x_min":0,"x_max":0,"o":""},"9":{"ha":688,"x_min":0,"x_max":0,"o":""}," ":{"ha":345,"x_min":0,"x_max":0,"o":""},"!":{"ha":456,"x_min":0,"x_max":0,"o":""},"\"":{"ha":456,"x_min":0,"x_max":0,"o":""},"#":{"ha":906,"x_min":0,"x_max":0,"o":""},"$":{"ha":688,"x_min":0,"x_max":0,"o":""},"%":{"ha":1092,"x_min":0,"x_max":0,"o":""},"&":{"ha":1141,"x_min":0,"x_max":0,"o":""},"'":{"ha":235,"x_min":0,"x_max":0,"o":""},"(":{"ha":514,"x_min":0,"x_max":0,"o":""},")":{"ha":514,"x_min":0,"x_max":0,"o":""},"*":{"ha":694,"x_min":0,"x_max":0,"o":""},"+":{"ha":688,"x_min":0,"x_max":0,"o":""},",":{"ha":378,"x_min":0,"x_max":0,"o":""},"-":{"ha":454,"x_min":0,"x_max":0,"o":""},".":{"ha":378,"x_min":0,"x_max":0,"o":""},"/":{"ha":386,"x_min":0,"x_max":0,"o":""},":":{"ha":378,"x_min":0,"x_max":0,"o":""},";":{"ha":378,"x_min":0,"x_max":0,"o":""},"<":{"ha":688,"x_min":0,"x_max":0,"o":""},"=":{"ha":688,"x_min":0,"x_max":0,"o":""},">":{"ha":688,"x_min":0,"x_max":0,"o":""},"?":{"ha":507,"x_min":0,"x_max":0,"o":""},"@":{"ha":1369,"x_min":0,"x_max":0,"o":""},"A":{"ha":1085,"x_min":0,"x_max":983,"o":"m 532 964 l 983 964 l 983 -14 l 787 -14 l 787 774 l 612 773 l 570 773 q 408 761 424 773 q 260 660 320 737 q 195 475 195 567 q 283 265 195 361 q 385 197 342 209 q 532 176 427 176 l 668 176 l 668 -14 l 505 -14 q 197 82 323 -14 q 76 212 106 154 q 0 459 0 333 l 0 488 q 132 811 0 664 q 263 909 212 889 q 364 948 300 930 q 532 964 422 964 z "},"B":{"ha":1085,"x_min":0,"x_max":983,"o":"m 1 963 l 458 963 q 710 912 613 963 q 804 853 752 892 q 983 474 983 699 q 800 92 983 248 q 586 -5 709 21 q 463 -14 528 -14 l 20 -14 q 0 12 0 -10 l 0 176 l 448 176 q 615 205 562 176 q 768 372 722 254 q 787 479 787 431 q 669 712 787 609 q 477 772 593 772 l 1 772 l 1 963 m 1 569 l 511 569 l 511 380 l 1 380 l 1 569 z "},"C":{"ha":1085,"x_min":0,"x_max":983,"o":"m 983 964 l 983 774 l 526 774 q 319 715 391 774 q 248 642 280 690 q 196 472 196 558 q 256 296 196 387 q 412 189 305 225 q 526 176 451 176 l 983 176 l 983 -9 l 962 -14 l 546 -14 q 294 28 376 -14 q 39 282 117 106 q 0 474 0 372 q 110 784 0 648 q 227 888 172 854 q 407 955 326 945 q 633 964 435 964 l 983 964 z "},"D":{"ha":1085,"x_min":0,"x_max":983,"o":"m 350 964 q 576 955 547 964 q 757 888 656 945 q 873 784 812 854 q 983 474 983 648 q 944 282 983 372 q 690 28 867 106 q 437 -14 608 -14 l 22 -14 l 0 -9 l 0 176 l 458 176 q 572 189 532 176 q 728 296 678 225 q 788 472 788 387 q 736 642 788 558 q 664 715 703 690 q 458 774 592 774 l 0 774 l 0 964 l 350 964 z "},"E":{"ha":1085,"x_min":0,"x_max":981,"o":"m 553 964 l 981 964 l 981 774 l 526 774 q 338 728 402 774 q 205 553 252 683 q 195 477 195 509 q 278 269 195 366 q 380 200 332 217 q 523 176 432 176 l 981 176 l 981 -14 l 545 -14 q 296 27 377 -14 q 38 285 116 106 q 0 475 0 374 q 173 848 0 694 q 378 949 286 934 q 553 964 425 964 m 471 569 l 981 569 l 981 381 l 471 381 l 471 569 z "},"F":{"ha":1085,"x_min":0,"x_max":983,"o":"m 983 963 l 983 774 l 527 773 q 344 730 408 773 q 210 559 254 682 q 197 389 197 529 l 197 -14 l 0 -14 l 0 424 q 41 669 0 584 q 139 813 76 749 q 279 914 213 886 q 474 962 385 962 l 983 963 m 474 568 l 983 568 l 983 380 l 474 380 l 474 568 z "},"G":{"ha":1085,"x_min":0,"x_max":983,"o":"m 472 569 l 983 569 l 983 -14 l 791 -14 l 791 381 l 472 381 l 472 569 m 0 475 q 48 688 0 585 q 320 932 136 863 q 540 964 393 964 l 983 964 l 983 774 l 516 774 q 222 592 305 774 q 195 475 195 533 q 222 357 195 416 q 516 176 305 176 l 712 176 l 712 -14 l 540 -14 q 320 18 393 -14 q 48 262 136 86 q 0 475 0 365 z "},"H":{"ha":1085,"x_min":0,"x_max":983,"o":"m 0 964 l 195 964 l 195 570 l 669 570 l 669 380 l 195 380 l 195 -14 l 0 -14 l 0 964 m 788 963 l 983 963 l 983 -14 l 788 -14 l 788 963 z "},"I":{"ha":302,"x_min":0,"x_max":196,"o":"m 0 963 l 196 963 l 196 -14 l 0 -14 l 0 963 z "},"J":{"ha":774,"x_min":0,"x_max":669,"o":"m 473 963 l 669 963 l 669 640 q 661 387 669 419 q 626 276 646 321 q 530 135 603 216 q 374 29 439 50 q 279 -3 345 14 q 0 -14 245 -14 l 0 176 l 111 176 q 273 195 241 176 q 386 267 315 204 q 471 494 471 353 q 473 596 473 513 l 473 963 z "},"K":{"ha":1085,"x_min":0,"x_max":1022,"o":"m 1022 963 l 300 474 l 1019 -14 l 741 -14 l 0 475 l 736 963 l 1022 963 z "},"L":{"ha":1085,"x_min":0,"x_max":983,"o":"m 0 963 l 197 963 l 197 501 q 345 219 197 307 q 518 176 410 176 l 983 176 l 983 -14 l 525 -14 q 227 64 339 -14 q 134 140 196 80 q 24 323 53 231 q 0 524 0 393 l 0 963 z "},"M":{"ha":1085,"x_min":0,"x_max":984,"o":"m 395 491 l 589 491 l 589 -14 l 395 -14 l 395 491 m 486 771 q 256 652 353 771 q 197 441 197 581 l 197 -14 l 0 -14 l 0 327 q 9 567 0 567 q 45 680 10 593 q 141 817 80 755 q 282 917 218 892 q 492 963 380 963 q 702 917 604 963 q 842 817 766 892 q 939 680 903 755 q 975 567 973 593 q 984 327 984 567 l 984 -14 l 787 -14 l 787 441 q 728 652 787 581 q 498 771 631 771 l 486 771 z "},"N":{"ha":1085,"x_min":0,"x_max":983,"o":"m 492 963 q 885 769 726 963 q 927 702 914 730 q 963 612 946 669 q 983 428 983 545 l 983 -14 l 787 -14 l 787 449 q 576 761 787 682 q 492 775 528 774 q 408 761 455 774 q 197 449 197 682 l 197 -14 l 0 -14 l 0 428 q 20 612 0 545 q 56 702 37 669 q 99 769 69 730 q 492 963 257 963 z "},"O":{"ha":1085,"x_min":0,"x_max":983,"o":"m 489 963 l 496 963 q 880 779 721 963 q 983 477 983 640 l 983 471 q 795 88 983 245 q 494 -14 658 -14 l 488 -14 q 104 170 264 -14 q 26 313 49 248 q 0 472 0 394 l 0 479 q 182 857 0 700 q 408 956 306 945 q 489 963 439 963 m 195 476 q 295 252 195 349 q 481 176 384 176 l 500 176 q 661 230 579 176 q 774 387 745 292 q 788 473 784 412 q 691 694 788 598 q 492 774 600 774 q 267 669 365 774 q 214 576 225 614 q 195 476 195 524 z "},"P":{"ha":1085,"x_min":0,"x_max":983,"o":"m 1 963 l 545 963 q 956 705 841 963 q 983 550 983 633 q 849 249 983 378 q 646 150 766 176 q 553 144 606 144 l 197 140 l 197 -14 l 0 -14 l 0 333 l 537 333 q 691 372 642 333 q 781 501 753 412 q 786 543 786 527 l 786 563 q 720 712 786 640 q 568 772 652 772 l 1 772 l 1 963 z "},"Q":{"ha":1085,"x_min":0,"x_max":983,"o":"m 494 963 q 844 817 693 963 q 945 666 923 732 q 983 491 983 577 l 983 457 q 905 217 983 347 l 768 354 q 788 479 788 435 q 670 713 788 610 q 491 773 587 773 q 292 693 383 773 q 197 474 197 597 q 277 271 197 363 q 492 175 372 175 q 610 196 534 175 l 750 62 q 507 -14 620 -14 l 481 -14 q 132 140 285 -14 q 0 474 0 288 q 180 853 0 696 q 494 963 321 963 m 696 386 l 716 386 l 982 120 l 982 106 l 863 -12 l 843 -12 l 577 254 l 577 267 l 696 386 z "},"R":{"ha":1085,"x_min":0,"x_max":983,"o":"m 0 964 l 628 964 q 888 864 794 964 q 947 788 930 825 q 983 645 983 715 l 983 617 q 890 408 983 510 q 782 334 831 351 q 905 -14 905 203 l 708 -14 l 708 1 q 578 256 708 161 q 385 308 505 308 l 0 308 l 0 496 l 640 496 q 783 600 745 496 q 788 635 787 621 q 740 740 788 693 q 652 772 699 772 q 623 775 652 775 l 0 775 l 0 964 z "},"S":{"ha":1085,"x_min":0,"x_max":983,"o":"m 311 963 l 969 963 l 969 762 l 304 762 q 209 686 227 762 l 209 671 q 260 595 209 626 q 292 589 275 589 l 627 589 q 802 563 755 589 q 959 408 916 512 q 983 282 983 343 q 846 35 983 136 q 753 -5 806 9 q 622 -14 713 -14 l 1 -14 l 0 187 l 667 187 q 774 270 751 187 l 776 288 q 718 378 776 347 q 666 389 698 389 l 291 389 q 45 517 144 389 q 3 662 3 589 l 3 688 q 149 926 3 839 q 311 963 210 963 z "},"T":{"ha":1085,"x_min":0,"x_max":983,"o":"m 0 963 l 983 963 l 983 774 l 591 774 l 591 -14 l 393 -14 l 393 774 l 0 774 l 0 963 z "},"U":{"ha":1085,"x_min":0,"x_max":983,"o":"m 492 -14 q 99 180 257 -14 q 56 248 69 219 q 20 337 37 281 q 0 522 0 405 l 0 963 l 197 963 l 197 500 q 408 189 197 267 q 492 174 455 175 q 576 189 528 175 q 787 500 787 267 l 787 963 l 983 963 l 983 522 q 963 337 983 405 q 927 248 946 281 q 885 180 914 220 q 492 -14 726 -14 z "},"V":{"ha":1085,"x_min":0,"x_max":1000,"o":"m 0 963 l 191 963 l 500 359 l 813 963 l 1000 963 l 500 -37 l 0 963 z "},"W":{"ha":1085,"x_min":0,"x_max":983,"o":"m 394 963 l 589 963 l 589 460 l 394 460 l 394 963 m 492 -14 q 99 180 257 -14 q 56 248 69 219 q 20 337 37 281 q 0 522 0 405 l 0 963 l 197 963 l 197 500 q 408 189 197 267 q 492 174 455 175 q 576 189 528 175 q 787 500 787 267 l 787 963 l 983 963 l 983 522 q 963 337 983 405 q 927 248 946 281 q 885 180 914 220 q 492 -14 726 -14 z "},"X":{"ha":1085,"x_min":0,"x_max":1010,"o":"m 0 963 l 221 963 l 505 623 l 788 963 l 1010 963 l 624 475 l 1009 -14 l 788 -14 l 505 326 l 221 -14 l 0 -14 l 385 475 l 0 963 z "},"Y":{"ha":1085,"x_min":0,"x_max":983,"o":"m 395 -14 l 395 146 q 179 255 278 178 q 74 376 98 328 q 22 492 41 429 q 0 677 0 560 l 0 963 l 197 963 l 197 668 q 247 469 197 539 q 312 398 257 447 q 492 334 394 334 q 671 398 589 334 q 736 469 726 447 q 787 668 787 539 l 787 963 l 983 963 l 983 677 q 962 492 983 560 q 909 376 943 429 q 805 255 885 328 q 588 146 705 178 l 588 -14 l 395 -14 z "},"Z":{"ha":1085,"x_min":0,"x_max":1008,"o":"m 12 963 l 1008 963 l 383 175 l 996 175 l 996 -14 l 0 -14 l 625 774 l 12 774 l 12 963 z "},"[":{"ha":514,"x_min":0,"x_max":0,"o":""},"\\":{"ha":386,"x_min":0,"x_max":0,"o":""},"]":{"ha":514,"x_min":0,"x_max":0,"o":""},"^":{"ha":688,"x_min":0,"x_max":0,"o":""},"_":{"ha":694,"x_min":0,"x_max":0,"o":""},"`":{"ha":694,"x_min":0,"x_max":0,"o":""},"a":{"ha":1085,"x_min":0,"x_max":983,"o":"m 532 964 l 983 964 l 983 -14 l 787 -14 l 787 774 l 612 773 l 570 773 q 408 761 424 773 q 260 660 320 737 q 195 475 195 567 q 283 265 195 361 q 385 197 342 209 q 532 176 427 176 l 668 176 l 668 -14 l 505 -14 q 197 82 323 -14 q 76 212 106 154 q 0 459 0 333 l 0 488 q 132 811 0 664 q 263 909 212 889 q 364 948 300 930 q 532 964 422 964 z "},"b":{"ha":1085,"x_min":0,"x_max":983,"o":"m 1 963 l 458 963 q 710 912 613 963 q 804 853 752 892 q 983 474 983 699 q 800 92 983 248 q 586 -5 709 21 q 463 -14 528 -14 l 20 -14 q 0 12 0 -10 l 0 176 l 448 176 q 615 205 562 176 q 768 372 722 254 q 787 479 787 431 q 669 712 787 609 q 477 772 593 772 l 1 772 l 1 963 m 1 569 l 511 569 l 511 380 l 1 380 l 1 569 z "},"c":{"ha":1085,"x_min":0,"x_max":983,"o":"m 983 964 l 983 774 l 526 774 q 319 715 391 774 q 248 642 280 690 q 196 472 196 558 q 256 296 196 387 q 412 189 305 225 q 526 176 451 176 l 983 176 l 983 -9 l 962 -14 l 546 -14 q 294 28 376 -14 q 39 282 117 106 q 0 474 0 372 q 110 784 0 648 q 227 888 172 854 q 407 955 326 945 q 633 964 435 964 l 983 964 z "},"d":{"ha":1085,"x_min":0,"x_max":983,"o":"m 350 964 q 576 955 547 964 q 757 888 656 945 q 873 784 812 854 q 983 474 983 648 q 944 282 983 372 q 690 28 867 106 q 437 -14 608 -14 l 22 -14 l 0 -9 l 0 176 l 458 176 q 572 189 532 176 q 728 296 678 225 q 788 472 788 387 q 736 642 788 558 q 664 715 703 690 q 458 774 592 774 l 0 774 l 0 964 l 350 964 z "},"e":{"ha":1085,"x_min":0,"x_max":981,"o":"m 553 964 l 981 964 l 981 774 l 526 774 q 338 728 402 774 q 205 553 252 683 q 195 477 195 509 q 278 269 195 366 q 380 200 332 217 q 523 176 432 176 l 981 176 l 981 -14 l 545 -14 q 296 27 377 -14 q 38 285 116 106 q 0 475 0 374 q 173 848 0 694 q 378 949 286 934 q 553 964 425 964 m 471 569 l 981 569 l 981 381 l 471 381 l 471 569 z "},"f":{"ha":1085,"x_min":0,"x_max":983,"o":"m 983 963 l 983 774 l 527 773 q 344 730 408 773 q 210 559 254 682 q 197 389 197 529 l 197 -14 l 0 -14 l 0 424 q 41 669 0 584 q 139 813 76 749 q 279 914 213 886 q 474 962 385 962 l 983 963 m 474 568 l 983 568 l 983 380 l 474 380 l 474 568 z "},"g":{"ha":1085,"x_min":0,"x_max":983,"o":"m 472 569 l 983 569 l 983 -14 l 791 -14 l 791 381 l 472 381 l 472 569 m 0 475 q 48 688 0 585 q 320 932 136 863 q 540 964 393 964 l 983 964 l 983 774 l 516 774 q 222 592 305 774 q 195 475 195 533 q 222 357 195 416 q 516 176 305 176 l 712 176 l 712 -14 l 540 -14 q 320 18 393 -14 q 48 262 136 86 q 0 475 0 365 z "},"h":{"ha":1085,"x_min":0,"x_max":983,"o":"m 0 964 l 195 964 l 195 570 l 669 570 l 669 380 l 195 380 l 195 -14 l 0 -14 l 0 964 m 788 963 l 983 963 l 983 -14 l 788 -14 l 788 963 z "},"i":{"ha":302,"x_min":0,"x_max":196,"o":"m 0 963 l 196 963 l 196 -14 l 0 -14 l 0 963 z "},"j":{"ha":774,"x_min":0,"x_max":669,"o":"m 473 963 l 669 963 l 669 640 q 661 387 669 419 q 626 276 646 321 q 530 135 603 216 q 374 29 439 50 q 279 -3 345 14 q 0 -14 245 -14 l 0 176 l 111 176 q 273 195 241 176 q 386 267 315 204 q 471 494 471 353 q 473 596 473 513 l 473 963 z "},"k":{"ha":1085,"x_min":0,"x_max":1022,"o":"m 1022 963 l 300 474 l 1019 -14 l 741 -14 l 0 475 l 736 963 l 1022 963 z "},"l":{"ha":1085,"x_min":0,"x_max":983,"o":"m 0 963 l 197 963 l 197 501 q 345 219 197 307 q 518 176 410 176 l 983 176 l 983 -14 l 525 -14 q 227 64 339 -14 q 134 140 196 80 q 24 323 53 231 q 0 524 0 393 l 0 963 z "},"m":{"ha":1085,"x_min":0,"x_max":984,"o":"m 395 491 l 589 491 l 589 -14 l 395 -14 l 395 491 m 486 771 q 256 652 353 771 q 197 441 197 581 l 197 -14 l 0 -14 l 0 327 q 9 567 0 567 q 45 680 10 593 q 141 817 80 755 q 282 917 218 892 q 492 963 380 963 q 702 917 604 963 q 842 817 766 892 q 939 680 903 755 q 975 567 973 593 q 984 327 984 567 l 984 -14 l 787 -14 l 787 441 q 728 652 787 581 q 498 771 631 771 l 486 771 z "},"n":{"ha":1085,"x_min":0,"x_max":983,"o":"m 492 963 q 885 769 726 963 q 927 702 914 730 q 963 612 946 669 q 983 428 983 545 l 983 -14 l 787 -14 l 787 449 q 576 761 787 682 q 492 775 528 774 q 408 761 455 774 q 197 449 197 682 l 197 -14 l 0 -14 l 0 428 q 20 612 0 545 q 56 702 37 669 q 99 769 69 730 q 492 963 257 963 z "},"o":{"ha":1085,"x_min":0,"x_max":983,"o":"m 489 963 l 496 963 q 880 779 721 963 q 983 477 983 640 l 983 471 q 795 88 983 245 q 494 -14 658 -14 l 488 -14 q 104 170 264 -14 q 26 313 49 248 q 0 472 0 394 l 0 479 q 182 857 0 700 q 408 956 306 945 q 489 963 439 963 m 195 476 q 295 252 195 349 q 481 176 384 176 l 500 176 q 661 230 579 176 q 774 387 745 292 q 788 473 784 412 q 691 694 788 598 q 492 774 600 774 q 267 669 365 774 q 214 576 225 614 q 195 476 195 524 z "},"p":{"ha":1085,"x_min":0,"x_max":983,"o":"m 1 963 l 545 963 q 956 705 841 963 q 983 550 983 633 q 849 249 983 378 q 646 150 766 176 q 553 144 606 144 l 197 140 l 197 -14 l 0 -14 l 0 333 l 537 333 q 691 372 642 333 q 781 501 753 412 q 786 543 786 527 l 786 563 q 720 712 786 640 q 568 772 652 772 l 1 772 l 1 963 z "},"q":{"ha":1085,"x_min":0,"x_max":983,"o":"m 494 963 q 844 817 693 963 q 945 666 923 732 q 983 491 983 577 l 983 457 q 905 217 983 347 l 768 354 q 788 479 788 435 q 670 713 788 610 q 491 773 587 773 q 292 693 383 773 q 197 474 197 597 q 277 271 197 363 q 492 175 372 175 q 610 196 534 175 l 750 62 q 507 -14 620 -14 l 481 -14 q 132 140 285 -14 q 0 474 0 288 q 180 853 0 696 q 494 963 321 963 m 696 386 l 716 386 l 982 120 l 982 106 l 863 -12 l 843 -12 l 577 254 l 577 267 l 696 386 z "},"r":{"ha":1085,"x_min":0,"x_max":983,"o":"m 0 964 l 628 964 q 888 864 794 964 q 947 788 930 825 q 983 645 983 715 l 983 617 q 890 408 983 510 q 782 334 831 351 q 905 -14 905 203 l 708 -14 l 708 1 q 578 256 708 161 q 385 308 505 308 l 0 308 l 0 496 l 640 496 q 783 600 745 496 q 788 635 787 621 q 740 740 788 693 q 652 772 699 772 q 623 775 652 775 l 0 775 l 0 964 z "},"s":{"ha":1085,"x_min":0,"x_max":983,"o":"m 311 963 l 969 963 l 969 762 l 304 762 q 209 686 227 762 l 209 671 q 260 595 209 626 q 292 589 275 589 l 627 589 q 802 563 755 589 q 959 408 916 512 q 983 282 983 343 q 846 35 983 136 q 753 -5 806 9 q 622 -14 713 -14 l 1 -14 l 0 187 l 667 187 q 774 270 751 187 l 776 288 q 718 378 776 347 q 666 389 698 389 l 291 389 q 45 517 144 389 q 3 662 3 589 l 3 688 q 149 926 3 839 q 311 963 210 963 z "},"t":{"ha":1085,"x_min":0,"x_max":983,"o":"m 0 963 l 983 963 l 983 774 l 591 774 l 591 -14 l 393 -14 l 393 774 l 0 774 l 0 963 z "},"u":{"ha":1085,"x_min":0,"x_max":983,"o":"m 492 -14 q 99 180 257 -14 q 56 248 69 219 q 20 337 37 281 q 0 522 0 405 l 0 963 l 197 963 l 197 500 q 408 189 197 267 q 492 174 455 175 q 576 189 528 175 q 787 500 787 267 l 787 963 l 983 963 l 983 522 q 963 337 983 405 q 927 248 946 281 q 885 180 914 220 q 492 -14 726 -14 z "},"v":{"ha":1085,"x_min":0,"x_max":1000,"o":"m 0 963 l 191 963 l 500 359 l 813 963 l 1000 963 l 500 -37 l 0 963 z "},"w":{"ha":1085,"x_min":0,"x_max":983,"o":"m 394 963 l 589 963 l 589 460 l 394 460 l 394 963 m 492 -14 q 99 180 257 -14 q 56 248 69 219 q 20 337 37 281 q 0 522 0 405 l 0 963 l 197 963 l 197 500 q 408 189 197 267 q 492 174 455 175 q 576 189 528 175 q 787 500 787 267 l 787 963 l 983 963 l 983 522 q 963 337 983 405 q 927 248 946 281 q 885 180 914 220 q 492 -14 726 -14 z "},"x":{"ha":1085,"x_min":0,"x_max":1010,"o":"m 0 963 l 221 963 l 505 623 l 788 963 l 1010 963 l 624 475 l 1009 -14 l 788 -14 l 505 326 l 221 -14 l 0 -14 l 385 475 l 0 963 z "},"y":{"ha":1085,"x_min":0,"x_max":983,"o":"m 395 -14 l 395 146 q 179 255 278 178 q 74 376 98 328 q 22 492 41 429 q 0 677 0 560 l 0 963 l 197 963 l 197 668 q 247 469 197 539 q 312 398 257 447 q 492 334 394 334 q 671 398 589 334 q 736 469 726 447 q 787 668 787 539 l 787 963 l 983 963 l 983 677 q 962 492 983 560 q 909 376 943 429 q 805 255 885 328 q 588 146 705 178 l 588 -14 l 395 -14 z "},"z":{"ha":1085,"x_min":0,"x_max":1008,"o":"m 12 963 l 1008 963 l 383 175 l 996 175 l 996 -14 l 0 -14 l 625 774 l 12 774 l 12 963 z "},"{":{"ha":688,"x_min":0,"x_max":0,"o":""},"|":{"ha":688,"x_min":0,"x_max":0,"o":""},"}":{"ha":688,"x_min":0,"x_max":0,"o":""},"~":{"ha":688,"x_min":0,"x_max":0,"o":""},"¡":{"ha":456,"x_min":0,"x_max":0,"o":""},"¢":{"ha":772,"x_min":0,"x_max":0,"o":""},"£":{"ha":688,"x_min":0,"x_max":0,"o":""},"¤":{"ha":688,"x_min":0,"x_max":0,"o":""},"¥":{"ha":856,"x_min":0,"x_max":0,"o":""},"¦":{"ha":688,"x_min":0,"x_max":0,"o":""},"§":{"ha":688,"x_min":0,"x_max":0,"o":""},"¨":{"ha":694,"x_min":0,"x_max":0,"o":""},"©":{"ha":1135,"x_min":0,"x_max":0,"o":""},"ª":{"ha":439,"x_min":0,"x_max":0,"o":""},"«":{"ha":640,"x_min":0,"x_max":0,"o":""},"¬":{"ha":688,"x_min":0,"x_max":0,"o":""},"®":{"ha":1135,"x_min":0,"x_max":0,"o":""},"¯":{"ha":454,"x_min":0,"x_max":0,"o":""},"°":{"ha":457,"x_min":0,"x_max":0,"o":""},"±":{"ha":688,"x_min":0,"x_max":0,"o":""},"²":{"ha":688,"x_min":0,"x_max":0,"o":""},"³":{"ha":688,"x_min":0,"x_max":0,"o":""},"´":{"ha":694,"x_min":0,"x_max":0,"o":""},"µ":{"ha":800,"x_min":0,"x_max":0,"o":""},"¶":{"ha":694,"x_min":0,"x_max":0,"o":""},"·":{"ha":345,"x_min":0,"x_max":0,"o":""},"¸":{"ha":694,"x_min":0,"x_max":0,"o":""},"¹":{"ha":688,"x_min":0,"x_max":0,"o":""},"º":{"ha":487,"x_min":0,"x_max":0,"o":""},"»":{"ha":640,"x_min":0,"x_max":0,"o":""},"¼":{"ha":1158,"x_min":0,"x_max":0,"o":""},"½":{"ha":1332,"x_min":0,"x_max":0,"o":""},"¾":{"ha":1158,"x_min":0,"x_max":0,"o":""},"¿":{"ha":507,"x_min":0,"x_max":0,"o":""},"À":{"ha":1044,"x_min":0,"x_max":0,"o":""},"Á":{"ha":1044,"x_min":0,"x_max":0,"o":""},"Â":{"ha":1044,"x_min":0,"x_max":0,"o":""},"Ã":{"ha":1044,"x_min":0,"x_max":0,"o":""},"Ä":{"ha":1044,"x_min":0,"x_max":0,"o":""},"Å":{"ha":1044,"x_min":0,"x_max":0,"o":""},"Æ":{"ha":1436,"x_min":0,"x_max":0,"o":""},"Ç":{"ha":949,"x_min":0,"x_max":0,"o":""},"È":{"ha":781,"x_min":0,"x_max":0,"o":""},"É":{"ha":781,"x_min":0,"x_max":0,"o":""},"Ê":{"ha":781,"x_min":0,"x_max":0,"o":""},"Ë":{"ha":781,"x_min":0,"x_max":0,"o":""},"Ì":{"ha":446,"x_min":0,"x_max":0,"o":""},"Í":{"ha":446,"x_min":0,"x_max":0,"o":""},"Î":{"ha":446,"x_min":0,"x_max":0,"o":""},"Ï":{"ha":446,"x_min":0,"x_max":0,"o":""},"Ð":{"ha":1029,"x_min":0,"x_max":0,"o":""},"Ñ":{"ha":1054,"x_min":0,"x_max":0,"o":""},"Ò":{"ha":1095,"x_min":0,"x_max":0,"o":""},"Ó":{"ha":1095,"x_min":0,"x_max":0,"o":""},"Ô":{"ha":1095,"x_min":0,"x_max":0,"o":""},"Õ":{"ha":1095,"x_min":0,"x_max":0,"o":""},"Ö":{"ha":1095,"x_min":0,"x_max":0,"o":""},"×":{"ha":688,"x_min":0,"x_max":0,"o":""},"Ø":{"ha":1095,"x_min":0,"x_max":0,"o":""},"Ù":{"ha":1018,"x_min":0,"x_max":0,"o":""},"Ú":{"ha":1018,"x_min":0,"x_max":0,"o":""},"Û":{"ha":1018,"x_min":0,"x_max":0,"o":""},"Ü":{"ha":1018,"x_min":0,"x_max":0,"o":""},"Ý":{"ha":836,"x_min":0,"x_max":0,"o":""},"Þ":{"ha":760,"x_min":0,"x_max":0,"o":""},"ß":{"ha":848,"x_min":0,"x_max":0,"o":""},"à":{"ha":625,"x_min":0,"x_max":0,"o":""},"á":{"ha":625,"x_min":0,"x_max":0,"o":""},"â":{"ha":625,"x_min":0,"x_max":0,"o":""},"ã":{"ha":625,"x_min":0,"x_max":0,"o":""},"ä":{"ha":625,"x_min":0,"x_max":0,"o":""},"å":{"ha":625,"x_min":0,"x_max":0,"o":""},"æ":{"ha":986,"x_min":0,"x_max":0,"o":""},"ç":{"ha":614,"x_min":0,"x_max":0,"o":""},"è":{"ha":616,"x_min":0,"x_max":0,"o":""},"é":{"ha":616,"x_min":0,"x_max":0,"o":""},"ê":{"ha":616,"x_min":0,"x_max":0,"o":""},"ë":{"ha":616,"x_min":0,"x_max":0,"o":""},"ì":{"ha":349,"x_min":0,"x_max":0,"o":""},"í":{"ha":349,"x_min":0,"x_max":0,"o":""},"î":{"ha":349,"x_min":0,"x_max":0,"o":""},"ï":{"ha":349,"x_min":0,"x_max":0,"o":""},"ð":{"ha":772,"x_min":0,"x_max":0,"o":""},"ñ":{"ha":751,"x_min":0,"x_max":0,"o":""},"ò":{"ha":685,"x_min":0,"x_max":0,"o":""},"ó":{"ha":685,"x_min":0,"x_max":0,"o":""},"ô":{"ha":685,"x_min":0,"x_max":0,"o":""},"õ":{"ha":685,"x_min":0,"x_max":0,"o":""},"ö":{"ha":685,"x_min":0,"x_max":0,"o":""},"÷":{"ha":688,"x_min":0,"x_max":0,"o":""},"ø":{"ha":685,"x_min":0,"x_max":0,"o":""},"ù":{"ha":718,"x_min":0,"x_max":0,"o":""},"ú":{"ha":718,"x_min":0,"x_max":0,"o":""},"û":{"ha":718,"x_min":0,"x_max":0,"o":""},"ü":{"ha":718,"x_min":0,"x_max":0,"o":""},"ý":{"ha":589,"x_min":0,"x_max":0,"o":""},"þ":{"ha":685,"x_min":0,"x_max":0,"o":""},"ÿ":{"ha":589,"x_min":0,"x_max":0,"o":""},"ı":{"ha":349,"x_min":0,"x_max":0,"o":""},"ˆ":{"ha":694,"x_min":0,"x_max":0,"o":""},"ˇ":{"ha":694,"x_min":0,"x_max":0,"o":""},"ˉ":{"ha":694,"x_min":0,"x_max":0,"o":""},"˘":{"ha":694,"x_min":0,"x_max":0,"o":""},"˙":{"ha":694,"x_min":0,"x_max":0,"o":""},"˚":{"ha":694,"x_min":0,"x_max":0,"o":""},"˛":{"ha":694,"x_min":0,"x_max":0,"o":""},"˜":{"ha":694,"x_min":0,"x_max":0,"o":""},"˝":{"ha":694,"x_min":0,"x_max":0,"o":""},"–":{"ha":751,"x_min":0,"x_max":0,"o":""},"—":{"ha":1389,"x_min":0,"x_max":0,"o":""},"‘":{"ha":378,"x_min":0,"x_max":0,"o":""},"’":{"ha":378,"x_min":0,"x_max":0,"o":""},"‚":{"ha":378,"x_min":0,"x_max":0,"o":""},"“":{"ha":617,"x_min":0,"x_max":0,"o":""},"”":{"ha":617,"x_min":0,"x_max":0,"o":""},"„":{"ha":617,"x_min":0,"x_max":0,"o":""},"†":{"ha":688,"x_min":0,"x_max":0,"o":""},"‡":{"ha":688,"x_min":0,"x_max":0,"o":""},"•":{"ha":694,"x_min":0,"x_max":0,"o":""},"…":{"ha":1389,"x_min":0,"x_max":0,"o":""},"‹":{"ha":428,"x_min":0,"x_max":0,"o":""},"›":{"ha":428,"x_min":0,"x_max":0,"o":""},"⁄":{"ha":232,"x_min":0,"x_max":0,"o":""},"₣":{"ha":688,"x_min":0,"x_max":0,"o":""},"₤":{"ha":688,"x_min":0,"x_max":0,"o":""},"₧":{"ha":1375,"x_min":0,"x_max":0,"o":""},"€":{"ha":688,"x_min":0,"x_max":0,"o":""},"№":{"ha":1540,"x_min":0,"x_max":0,"o":""},"™":{"ha":1015,"x_min":0,"x_max":0,"o":""},"∂":{"ha":688,"x_min":0,"x_max":0,"o":""},"∆":{"ha":733,"x_min":0,"x_max":0,"o":""},"∏":{"ha":1027,"x_min":0,"x_max":0,"o":""},"∑":{"ha":818,"x_min":0,"x_max":0,"o":""},"−":{"ha":688,"x_min":0,"x_max":0,"o":""},"√":{"ha":688,"x_min":0,"x_max":0,"o":""},"∞":{"ha":688,"x_min":0,"x_max":0,"o":""},"∫":{"ha":451,"x_min":0,"x_max":0,"o":""},"≈":{"ha":688,"x_min":0,"x_max":0,"o":""},"≤":{"ha":688,"x_min":0,"x_max":0,"o":""},"≥":{"ha":688,"x_min":0,"x_max":0,"o":""},"":{"ha":728,"x_min":0,"x_max":0,"o":""},"":{"ha":733,"x_min":0,"x_max":0,"o":""}}}
